<svg width="28" height="27" viewBox="0 0 28 27" fill="none" xmlns="http://www.w3.org/2000/svg">
<g clip-path="url(#clip0_380_26)">
<path d="M14 2.43225C17.738 2.43225 18.1813 2.44575 19.6572 2.511C21.1832 2.5785 22.7547 2.91375 23.8665 3.98587C24.9888 5.06812 25.326 6.56887 25.396 8.04488C25.4637 9.468 25.4777 9.8955 25.4777 13.5C25.4777 17.1045 25.4637 17.532 25.396 18.9551C25.3272 20.4188 24.9713 21.9488 23.8665 23.0141C22.7442 24.0964 21.189 24.4215 19.6572 24.489C18.1813 24.5542 17.738 24.5677 14 24.5677C10.262 24.5677 9.81867 24.5542 8.34283 24.489C6.83667 24.4226 5.229 24.0716 4.1335 23.0141C3.017 21.9375 2.674 20.4221 2.604 18.9551C2.53633 17.532 2.52233 17.1045 2.52233 13.5C2.52233 9.8955 2.53633 9.468 2.604 8.04488C2.67283 6.58687 3.03217 5.04787 4.1335 3.98587C5.2535 2.90587 6.81567 2.5785 8.34283 2.511C9.81867 2.44575 10.262 2.43225 14 2.43225ZM14 0C10.1978 0 9.72067 0.01575 8.22733 0.081C6.06317 0.176625 3.91417 0.757125 2.34967 2.26575C0.779333 3.78 0.183167 5.84775 0.084 7.9335C0.0163333 9.3735 0 9.83362 0 13.5C0 17.1664 0.0163333 17.6265 0.084 19.0665C0.183167 21.1511 0.7875 23.229 2.34967 24.7342C3.91883 26.2474 6.06667 26.8234 8.22733 26.919C9.72067 26.9842 10.1978 27 14 27C17.8022 27 18.2793 26.9842 19.7727 26.919C21.9357 26.8234 24.087 26.2418 25.6503 24.7342C27.2218 23.2189 27.8168 21.1523 27.916 19.0665C27.9837 17.6265 28 17.1664 28 13.5C28 9.83362 27.9837 9.3735 27.916 7.9335C27.8168 5.84662 27.2137 3.77325 25.6503 2.26575C24.0835 0.754875 21.9298 0.1755 19.7727 0.081C18.2793 0.01575 17.8022 0 14 0Z" fill="#F6F6F6"/>
<path d="M14 6.56775C10.0299 6.56775 6.81104 9.67162 6.81104 13.5C6.81104 17.3284 10.0299 20.4323 14 20.4323C17.9702 20.4323 21.189 17.3284 21.189 13.5C21.189 9.67162 17.9702 6.56775 14 6.56775ZM14 18C11.4229 18 9.33337 15.9851 9.33337 13.5C9.33337 11.0149 11.4229 9 14 9C16.5772 9 18.6667 11.0149 18.6667 13.5C18.6667 15.9851 16.5772 18 14 18Z" fill="#F6F6F6"/>
<path d="M21.4737 7.91325C22.4015 7.91325 23.1537 7.18795 23.1537 6.29325C23.1537 5.39855 22.4015 4.67325 21.4737 4.67325C20.5459 4.67325 19.7937 5.39855 19.7937 6.29325C19.7937 7.18795 20.5459 7.91325 21.4737 7.91325Z" fill="#F6F6F6"/>
</g>
<defs>
<clipPath id="clip0_380_26">
<rect width="28" height="27" fill="white"/>
</clipPath>
</defs>
</svg>
