<svg width="27" height="28" viewBox="0 0 27 28" fill="none" xmlns="http://www.w3.org/2000/svg">
<g clip-path="url(#clip0_380_17)">
<rect width="27" height="28" fill="#263025"/>
<path d="M26.4352 7.21699C26.1247 6.00483 25.2101 5.04933 24.048 4.72499C21.9431 4.13699 13.5 4.13699 13.5 4.13699C13.5 4.13699 5.05687 4.13699 2.95087 4.72499C1.78987 5.04933 0.87525 6.00366 0.56475 7.21699C0 9.41499 0 14 0 14C0 14 0 18.585 0.56475 20.783C0.87525 21.9952 1.78988 22.9507 2.952 23.275C5.05688 23.863 13.5 23.863 13.5 23.863C13.5 23.863 21.9431 23.863 24.0491 23.275C25.2101 22.9507 26.1248 21.9963 26.4364 20.783C27 18.585 27 14 27 14C27 14 27 9.41499 26.4352 7.21699ZM10.7392 18.1638V9.83616L17.7952 14L10.7392 18.1638Z" fill="#F6F6F6"/>
</g>
<defs>
<clipPath id="clip0_380_17">
<rect width="27" height="28" fill="white"/>
</clipPath>
</defs>
</svg>
