<svg width="54" height="54" viewBox="0 0 54 54" fill="none" xmlns="http://www.w3.org/2000/svg">
<path d="M20.9067 27.7333C20.9067 27.9733 20.9067 27.9733 20.72 27.9733H16C16.88 25.3067 17.8133 22.48 18.6667 19.7067C18.6667 19.92 18.6667 20.1333 18.8533 20.3467C19.04 20.56 19.0933 21.2267 19.2 21.6533L19.68 23.1467C19.68 23.6533 19.9733 24.1333 20.1333 24.64L20.64 26.16L20.9067 27.7333Z" fill="black"/>
<path d="M40.2133 26.0533C40.0653 25.602 39.7993 25.1984 39.443 24.8843C39.0867 24.5702 38.653 24.357 38.1867 24.2667C37.701 24.1871 37.2057 24.1871 36.72 24.2667C36.3607 24.3367 36.0213 24.4853 35.7262 24.702C35.4311 24.9187 35.1877 25.1981 35.0133 25.52C34.7432 25.9989 34.5625 26.523 34.48 27.0667H40C40.2667 27.0667 40.3467 27.0667 40.32 26.6933C40.3106 26.4765 40.2748 26.2615 40.2133 26.0533ZM40.2133 26.0533C40.0653 25.602 39.7993 25.1984 39.443 24.8843C39.0867 24.5702 38.653 24.357 38.1867 24.2667C37.701 24.1871 37.2057 24.1871 36.72 24.2667C36.3607 24.3367 36.0213 24.4853 35.7262 24.702C35.4311 24.9187 35.1877 25.1981 35.0133 25.52C34.7432 25.9989 34.5625 26.523 34.48 27.0667H40C40.2667 27.0667 40.3467 27.0667 40.32 26.6933C40.3106 26.4765 40.2748 26.2615 40.2133 26.0533ZM40.2133 26.0533C40.0653 25.602 39.7993 25.1984 39.443 24.8843C39.0867 24.5702 38.653 24.357 38.1867 24.2667C37.701 24.1871 37.2057 24.1871 36.72 24.2667C36.3607 24.3367 36.0213 24.4853 35.7262 24.702C35.4311 24.9187 35.1877 25.1981 35.0133 25.52C34.7432 25.9989 34.5625 26.523 34.48 27.0667H40C40.2667 27.0667 40.3467 27.0667 40.32 26.6933C40.3106 26.4765 40.2748 26.2615 40.2133 26.0533ZM40.2133 26.0533C40.0653 25.602 39.7993 25.1984 39.443 24.8843C39.0867 24.5702 38.653 24.357 38.1867 24.2667C37.701 24.1871 37.2057 24.1871 36.72 24.2667C36.3607 24.3367 36.0213 24.4853 35.7262 24.702C35.4311 24.9187 35.1877 25.1981 35.0133 25.52C34.7432 25.9989 34.5625 26.523 34.48 27.0667H40C40.2667 27.0667 40.3467 27.0667 40.32 26.6933C40.3106 26.4765 40.2748 26.2615 40.2133 26.0533ZM40 0H13.3333C9.79711 0 6.40573 1.40476 3.90524 3.90524C1.40476 6.40573 0 9.79711 0 13.3333V40C0 43.5362 1.40476 46.9276 3.90524 49.4281C6.40573 51.9286 9.79711 53.3333 13.3333 53.3333H40C43.5362 53.3333 46.9276 51.9286 49.4281 49.4281C51.9286 46.9276 53.3333 43.5362 53.3333 40V13.3333C53.3333 9.79711 51.9286 6.40573 49.4281 3.90524C46.9276 1.40476 43.5362 0 40 0ZM28.6133 37.3333H24.2933C24.2193 37.3446 24.1436 37.3333 24.0761 37.3009C24.0086 37.2686 23.9523 37.2167 23.9147 37.152C23.8897 37.1094 23.8733 37.0623 23.8667 37.0133C23.6533 36.3467 23.4133 35.7067 23.2 35.04C22.9867 34.3733 22.6667 33.52 22.4267 32.7467C22.4267 32.32 22.08 32.2667 21.7067 32.2667H14.9867C14.6933 32.2667 14.6933 32.2667 14.5867 32.5867C14.48 32.9067 14.32 33.4667 14.16 33.92L13.7333 35.3067L13.1733 36.9333C13.1877 37.0037 13.1877 37.0763 13.1733 37.1467C13.1733 37.4933 12.7467 37.44 12.48 37.44H9.04C8.64 37.44 8.50667 37.2533 8.66667 36.88C8.82667 36.5067 8.96 36.08 9.09333 35.7067L9.65333 34L10.6933 31.0667C10.9867 30.2667 11.2533 29.44 11.52 28.6133C11.7867 27.7867 12.0267 27.2 12.2933 26.48L12.8533 24.8L13.84 22.1333L14.64 19.7867C14.9067 19.04 15.1733 18.2933 15.4133 17.52C15.4508 17.1565 15.4508 16.7901 15.4133 16.4267C15.4133 15.8667 15.4133 15.8667 15.9733 15.8667H20.8C21.2267 15.8667 21.2 15.8667 21.3333 16.2667C21.4667 16.6667 21.8133 17.5733 22.0267 18.2133C22.24 18.8533 22.4267 19.3333 22.6133 19.8667L23.2533 21.6L23.8933 23.4667C24.16 24.1867 24.4267 24.88 24.6667 25.6L25.36 27.52C25.5733 28.16 25.8133 28.8 26.0533 29.4667C26.2933 30.1333 26.3733 30.4533 26.56 30.9333C26.7467 31.4133 26.9333 32 27.1467 32.5333C27.36 33.0667 27.4933 33.5467 27.68 34.0533L28.4533 36.2133L28.7733 37.1467C28.88 37.12 28.8 37.3333 28.6133 37.3333ZM44.6133 29.3333C44.6258 29.5733 44.6258 29.8133 44.6133 30.0533C44.6133 30.2933 44.2133 30.3733 43.9733 30.3733H34.56C34.656 31.248 35.04 32.064 35.6533 32.6933C36.7645 33.3758 38.0257 33.7764 39.3271 33.86C40.6285 33.9437 41.9306 33.7079 43.12 33.1733C43.3333 33.1733 43.44 33.1733 43.44 33.3867V36.4C43.44 36.88 43.2533 36.9333 42.8533 37.0933L41.8933 37.3867C41.5884 37.4766 41.2761 37.5391 40.96 37.5733C40.2933 37.5733 39.6267 37.76 38.96 37.7867C38.2933 37.8133 38.0533 37.7867 37.6 37.7867H37.3333C36.8 37.7867 36.24 37.7867 35.7333 37.6C34.2624 37.3063 32.9199 36.5604 31.8933 35.4667C31.2421 34.7934 30.7341 33.9951 30.4 33.12C30.1302 32.4813 29.9507 31.8082 29.8667 31.12C29.8284 30.3382 29.8284 29.5551 29.8667 28.7733C29.9067 27.8107 30.088 26.8587 30.4 25.9467C30.6622 25.1877 31.0303 24.4695 31.4933 23.8133C32.1009 22.8978 32.9254 22.1466 33.8933 21.6267C34.3111 21.3849 34.7467 21.1804 35.2 21.0133C35.6923 20.8962 36.1909 20.8071 36.6933 20.7467C37.1467 20.72 37.6 20.72 38.0533 20.7467C38.7218 20.7573 39.3796 20.8462 40.0267 21.0133C40.6133 21.1787 41.1733 21.4098 41.7067 21.7067C42.5279 22.1776 43.209 22.8587 43.68 23.68C43.9467 24.16 44.16 24.64 44.3733 25.12C44.4871 25.4596 44.576 25.8062 44.64 26.16C44.8784 27.2018 44.9056 28.2808 44.72 29.3333H44.6133ZM38.08 24.4C37.5944 24.3204 37.099 24.3204 36.6133 24.4C36.254 24.47 35.9146 24.6187 35.6195 24.8354C35.3244 25.0521 35.081 25.3314 34.9067 25.6533C34.6366 26.1323 34.4558 26.6564 34.3733 27.2H40C40.2667 27.2 40.3467 27.2 40.32 26.8267C40.2979 26.5894 40.2441 26.3563 40.16 26.1333C40.0285 25.6739 39.776 25.2583 39.4288 24.9299C39.0817 24.6015 38.6527 24.3725 38.1867 24.2667L38.08 24.4ZM40.1067 26.1867C39.9586 25.7354 39.6927 25.3318 39.3364 25.0177C38.9801 24.7036 38.5463 24.4903 38.08 24.4C37.5944 24.3204 37.099 24.3204 36.6133 24.4C36.254 24.47 35.9146 24.6187 35.6195 24.8354C35.3244 25.0521 35.081 25.3314 34.9067 25.6533C34.6366 26.1323 34.4558 26.6564 34.3733 27.2H40C40.2667 27.2 40.3467 27.2 40.32 26.8267C40.32 26.5636 40.2844 26.3058 40.2133 26.0533L40.1067 26.1867ZM40.1067 26.1867C39.9586 25.7354 39.6927 25.3318 39.3364 25.0177C38.9801 24.7036 38.5463 24.4903 38.08 24.4C37.5944 24.3204 37.099 24.3204 36.6133 24.4C36.254 24.47 35.9146 24.6187 35.6195 24.8354C35.3244 25.0521 35.081 25.3314 34.9067 25.6533C34.6366 26.1323 34.4558 26.6564 34.3733 27.2H40C40.2667 27.2 40.3467 27.2 40.32 26.8267C40.32 26.5636 40.2844 26.3058 40.2133 26.0533L40.1067 26.1867ZM40.1067 26.1867C39.9586 25.7354 39.6927 25.3318 39.3364 25.0177C38.9801 24.7036 38.5463 24.4903 38.08 24.4C37.5944 24.3204 37.099 24.3204 36.6133 24.4C36.254 24.47 35.9146 24.6187 35.6195 24.8354C35.3244 25.0521 35.081 25.3314 34.9067 25.6533C34.6366 26.1323 34.4558 26.6564 34.3733 27.2H40C40.2667 27.2 40.3467 27.2 40.32 26.8267C40.32 26.5636 40.2844 26.3058 40.2133 26.0533L40.1067 26.1867ZM40.1067 26.1867C39.9586 25.7354 39.6927 25.3318 39.3364 25.0177C38.9801 24.7036 38.5463 24.4903 38.08 24.4C37.5944 24.3204 37.099 24.3204 36.6133 24.4C36.254 24.47 35.9146 24.6187 35.6195 24.8354C35.3244 25.0521 35.081 25.3314 34.9067 25.6533C34.6366 26.1323 34.4558 26.6564 34.3733 27.2H40C40.2667 27.2 40.3467 27.2 40.32 26.8267C40.32 26.5636 40.2844 26.3058 40.2133 26.0533L40.1067 26.1867Z" fill="black"/>
</svg>
