<svg width="28" height="27" viewBox="0 0 28 27" fill="none" xmlns="http://www.w3.org/2000/svg">
<path d="M11.1755 10.583C11.1755 9.51646 10.3191 9.26334 9.3683 9.26334H6.8938V11.9633H9.56197C10.5058 11.9633 11.1755 11.5651 11.1755 10.583Z" fill="#F6F6F6"/>
<path d="M19.4436 11.9814C18.3003 11.9814 17.5373 12.6687 17.4626 13.7712H21.35C21.2438 12.6564 20.6441 11.9814 19.4436 11.9814Z" fill="#F6F6F6"/>
<path d="M9.76261 13.886H6.88794V17.0742H9.70661C10.7823 17.0742 11.6573 16.7064 11.6573 15.5431C11.6561 14.3562 10.9246 13.8916 9.76261 13.886Z" fill="#F6F6F6"/>
<path d="M23.0417 0.150848H4.95833C2.21667 0.150848 0 2.28835 0 4.9321V21.6946C0 24.3384 2.21667 26.4758 4.95833 26.4758H23.0417C25.7833 26.4758 28 24.3384 28 21.6946V4.9321C28 2.28835 25.7833 0.150848 23.0417 0.150848ZM16.9808 7.89535H21.8435V9.03385H16.9808V7.89535ZM10.0683 19.0508H4.25017V7.4791H9.90617C11.963 7.4791 13.7433 8.03935 13.7433 10.3411C13.7433 11.5043 13.181 12.077 12.1053 12.5708C13.58 12.9747 14.2928 14.2291 14.2928 15.6815C14.294 18.0327 12.25 19.0385 10.0683 19.0508ZM23.7312 15.2236H17.4685C17.4685 16.5612 18.2 17.351 19.6 17.351C20.3245 17.351 21.2567 16.9775 21.4877 16.2597H23.5935C22.9437 18.1823 21.5997 19.0801 19.5253 19.0801C16.7883 19.0801 15.0815 17.2902 15.0815 14.6802C15.0815 12.1613 16.8758 10.2455 19.5253 10.2455C22.2437 10.2455 23.7498 12.3121 23.7498 14.7893C23.7498 14.9345 23.737 15.0852 23.7312 15.2236Z" fill="#F6F6F6"/>
</svg>
