<svg width="33" height="32" viewBox="0 0 33 32" fill="none" xmlns="http://www.w3.org/2000/svg">
<path d="M28.7638 4.4754C28.0552 3.69063 27.2139 3.06809 26.2879 2.64335C25.3619 2.21861 24.3694 2 23.367 2C22.3647 2 21.3722 2.21861 20.4462 2.64335C19.5202 3.06809 18.6788 3.69063 17.9702 4.4754L16.4996 6.10333L15.029 4.4754C13.5977 2.89096 11.6564 2.00082 9.63223 2.00082C7.60804 2.00082 5.66675 2.89096 4.23543 4.4754C2.80411 6.05985 2 8.20882 2 10.4496C2 12.6903 2.80411 14.8393 4.23543 16.4237L5.70602 18.0517L16.4996 30L27.2932 18.0517L28.7638 16.4237C29.4728 15.6393 30.0351 14.708 30.4188 13.6829C30.8025 12.6579 31 11.5592 31 10.4496C31 9.33999 30.8025 8.24129 30.4188 7.21622C30.0351 6.19115 29.4728 5.25981 28.7638 4.4754Z" stroke="#263025" stroke-width="3" stroke-linecap="round" stroke-linejoin="round"/>
</svg>
