<svg width="28" height="28" viewBox="0 0 28 28" fill="none" xmlns="http://www.w3.org/2000/svg">
<path d="M14 3.2456C17.738 3.2456 18.1813 3.2591 19.6572 3.32435C21.1832 3.39185 22.7547 3.7271 23.8665 4.79923C24.9888 5.88148 25.326 7.38223 25.396 8.85823C25.4637 10.2814 25.4777 10.7089 25.4777 14.3134C25.4777 17.9179 25.4637 18.3454 25.396 19.7685C25.3272 21.2321 24.9713 22.7621 23.8665 23.8275C22.7442 24.9097 21.189 25.2349 19.6572 25.3024C18.1813 25.3676 17.738 25.3811 14 25.3811C10.262 25.3811 9.81867 25.3676 8.34283 25.3024C6.83667 25.236 5.229 24.885 4.1335 23.8275C3.017 22.7509 2.674 21.2355 2.604 19.7685C2.53633 18.3454 2.52233 17.9179 2.52233 14.3134C2.52233 10.7089 2.53633 10.2814 2.604 8.85823C2.67283 7.40023 3.03217 5.86123 4.1335 4.79923C5.2535 3.71923 6.81567 3.39185 8.34283 3.32435C9.81867 3.2591 10.262 3.2456 14 3.2456ZM14 0.813354C10.1978 0.813354 9.72067 0.829104 8.22733 0.894354C6.06317 0.989979 3.91417 1.57048 2.34967 3.0791C0.779333 4.59335 0.183167 6.6611 0.084 8.74685C0.0163333 10.1869 0 10.647 0 14.3134C0 17.9797 0.0163333 18.4399 0.084 19.8799C0.183167 21.9645 0.7875 24.0424 2.34967 25.5476C3.91883 27.0607 6.06667 27.6367 8.22733 27.7324C9.72067 27.7976 10.1978 27.8134 14 27.8134C17.8022 27.8134 18.2793 27.7976 19.7727 27.7324C21.9357 27.6367 24.087 27.0551 25.6503 25.5476C27.2218 24.0322 27.8168 21.9656 27.916 19.8799C27.9837 18.4399 28 17.9797 28 14.3134C28 10.647 27.9837 10.1869 27.916 8.74685C27.8168 6.65998 27.2137 4.5866 25.6503 3.0791C24.0835 1.56823 21.9298 0.988854 19.7727 0.894354C18.2793 0.829104 17.8022 0.813354 14 0.813354Z" fill="#F6F6F6"/>
<path d="M14 7.3811C10.0299 7.3811 6.81104 10.485 6.81104 14.3134C6.81104 18.1417 10.0299 21.2456 14 21.2456C17.9702 21.2456 21.189 18.1417 21.189 14.3134C21.189 10.485 17.9702 7.3811 14 7.3811ZM14 18.8134C11.4229 18.8134 9.33337 16.7985 9.33337 14.3134C9.33337 11.8282 11.4229 9.81335 14 9.81335C16.5772 9.81335 18.6667 11.8282 18.6667 14.3134C18.6667 16.7985 16.5772 18.8134 14 18.8134Z" fill="#F6F6F6"/>
<path d="M21.4737 8.7266C22.4015 8.7266 23.1537 8.0013 23.1537 7.1066C23.1537 6.2119 22.4015 5.4866 21.4737 5.4866C20.5459 5.4866 19.7937 6.2119 19.7937 7.1066C19.7937 8.0013 20.5459 8.7266 21.4737 8.7266Z" fill="#F6F6F6"/>
</svg>
