<svg width="28" height="27" viewBox="0 0 28 27" fill="none" xmlns="http://www.w3.org/2000/svg">
<g clip-path="url(#clip0_380_20)">
<path d="M11.1755 10.7696C11.1755 9.70312 10.3191 9.45 9.3683 9.45H6.8938V12.15H9.56197C10.5058 12.15 11.1755 11.7517 11.1755 10.7696Z" fill="#F6F6F6"/>
<path d="M19.4436 12.168C18.3003 12.168 17.5373 12.8554 17.4626 13.9579H21.35C21.2438 12.843 20.6441 12.168 19.4436 12.168Z" fill="#F6F6F6"/>
<path d="M9.76261 14.0726H6.88794V17.2609H9.70661C10.7823 17.2609 11.6573 16.893 11.6573 15.7297C11.6561 14.5429 10.9246 14.0782 9.76261 14.0726Z" fill="#F6F6F6"/>
<path d="M23.0417 0.337494H4.95833C2.21667 0.337494 0 2.47499 0 5.11874V21.8812C0 24.525 2.21667 26.6625 4.95833 26.6625H23.0417C25.7833 26.6625 28 24.525 28 21.8812V5.11874C28 2.47499 25.7833 0.337494 23.0417 0.337494ZM16.9808 8.08199H21.8435V9.22049H16.9808V8.08199ZM10.0683 19.2375H4.25017V7.66574H9.90617C11.963 7.66574 13.7433 8.22599 13.7433 10.5277C13.7433 11.691 13.181 12.2636 12.1053 12.7575C13.58 13.1614 14.2928 14.4157 14.2928 15.8681C14.294 18.2194 12.25 19.2251 10.0683 19.2375ZM23.7312 15.4102H17.4685C17.4685 16.7479 18.2 17.5376 19.6 17.5376C20.3245 17.5376 21.2567 17.1641 21.4877 16.4464H23.5935C22.9437 18.369 21.5997 19.2667 19.5253 19.2667C16.7883 19.2667 15.0815 17.4769 15.0815 14.8669C15.0815 12.348 16.8758 10.4321 19.5253 10.4321C22.2437 10.4321 23.7498 12.4987 23.7498 14.976C23.7498 15.1211 23.737 15.2719 23.7312 15.4102Z" fill="#F6F6F6"/>
</g>
<defs>
<clipPath id="clip0_380_20">
<rect width="28" height="27" fill="white"/>
</clipPath>
</defs>
</svg>
