<svg width="27" height="27" viewBox="0 0 27 27" fill="none" xmlns="http://www.w3.org/2000/svg">
<g clip-path="url(#clip0_380_31)">
<path d="M25.8772 24.282H26.1325L25.6432 23.5417C25.9424 23.5417 26.101 23.3516 26.1033 23.1187C26.1033 23.1097 26.1033 23.0996 26.1022 23.0906C26.1022 22.7734 25.9109 22.6215 25.5183 22.6215H24.8838V24.282H25.1223V23.5586H25.4159L25.8772 24.282ZM25.399 23.3707H25.1223V22.8094H25.4733C25.6544 22.8094 25.8614 22.8386 25.8614 23.076C25.8614 23.3482 25.6533 23.3707 25.399 23.3707Z" fill="#F6F6F6"/>
<path d="M19.4524 21.4571H16.0695V16.1595C16.0695 14.8961 16.047 13.2705 14.31 13.2705C12.5483 13.2705 12.2783 14.6464 12.2783 16.0684V21.4571H8.8965V10.5626H12.1444V12.051H12.1894C12.852 10.9192 14.0828 10.2431 15.3934 10.2915C18.8224 10.2915 19.4535 12.5471 19.4535 15.48L19.4524 21.4571ZM5.07938 9.07312C3.99488 9.07312 3.11625 8.1945 3.11625 7.11C3.11625 6.0255 3.99488 5.14687 5.07938 5.14687C6.16388 5.14687 7.0425 6.0255 7.0425 7.11C7.0425 8.1945 6.16388 9.07312 5.07938 9.07312ZM6.77025 21.4571H3.384V10.5626H6.77025V21.4571ZM21.1388 2.00587H1.68413C0.765 1.99575 0.01125 2.73262 0 3.65175V23.1862C0.01125 24.1065 0.765 24.8434 1.68413 24.8332H21.1388C22.0601 24.8445 22.8173 24.1076 22.8296 23.1862V3.65062C22.8161 2.72925 22.059 1.99237 21.1388 2.00475" fill="#F6F6F6"/>
<path d="M25.4283 21.8824C24.5688 21.8902 23.878 22.5945 23.887 23.454C23.8949 24.3135 24.5992 25.0042 25.4587 24.9952C26.3182 24.9874 27.0089 24.2831 26.9999 23.4236C26.9921 22.5754 26.3058 21.8902 25.4587 21.8824H25.4283ZM25.4643 24.8164C24.7106 24.8287 24.0536 24.2291 24.0412 23.4754C24.0288 22.7216 24.6295 22.1006 25.3833 22.0882C26.137 22.0759 26.758 22.6766 26.7704 23.4304C26.7704 23.4382 26.7704 23.445 26.7704 23.4529C26.7862 24.1897 26.2012 24.8006 25.4643 24.8164H25.4294H25.4643Z" fill="#F6F6F6"/>
</g>
<defs>
<clipPath id="clip0_380_31">
<rect width="27" height="27" fill="white"/>
</clipPath>
</defs>
</svg>
