<svg width="54" height="54" viewBox="0 0 54 54" fill="none" xmlns="http://www.w3.org/2000/svg">
<path d="M22.4267 19.9467C23.36 22.9867 24.32 26.0267 25.28 29.1201H19.6267C20.5867 26.0267 21.4934 22.9867 22.4267 19.9467Z" fill="black"/>
<path d="M40 0H13.3333C9.79711 0 6.40573 1.40476 3.90524 3.90524C1.40476 6.40573 0 9.79711 0 13.3333V40C0 43.5362 1.40476 46.9276 3.90524 49.4281C6.40573 51.9286 9.79711 53.3333 13.3333 53.3333H40C43.5362 53.3333 46.9276 51.9286 49.4281 49.4281C51.9286 46.9276 53.3333 43.5362 53.3333 40V13.3333C53.3333 9.79711 51.9286 6.40573 49.4281 3.90524C46.9276 1.40476 43.5362 0 40 0ZM33.3067 39.4133H29.1467C28.9807 39.4364 28.8124 39.3934 28.6778 39.2937C28.5431 39.194 28.453 39.0454 28.4267 38.88C27.92 37.3867 27.3867 35.8933 26.88 34.3733C26.864 34.278 26.8291 34.1869 26.7771 34.1054C26.7252 34.0239 26.6574 33.9537 26.5778 33.899C26.4982 33.8442 26.4083 33.8061 26.3137 33.7868C26.219 33.7675 26.1214 33.7674 26.0267 33.7867H18.9333C18.8348 33.7634 18.7325 33.7612 18.6331 33.7802C18.5337 33.7991 18.4394 33.8389 18.3563 33.8967C18.2733 33.9546 18.2034 34.0294 18.1512 34.1161C18.099 34.2028 18.0656 34.2995 18.0533 34.4C17.6 35.8933 17.0933 37.3333 16.64 38.8267C16.6273 38.9209 16.5954 39.0115 16.5462 39.0929C16.497 39.1742 16.4317 39.2446 16.3541 39.2996C16.2766 39.3546 16.1886 39.3931 16.0956 39.4127C16.0025 39.4322 15.9065 39.4325 15.8133 39.4133H12.16C11.52 39.4133 11.4667 39.4133 11.68 38.7467L17.44 22.1333C17.9733 20.6133 18.5067 19.0933 18.9867 17.5733C19.1185 17.1225 19.1903 16.6563 19.2 16.1867C19.2 15.6267 19.4133 15.4933 19.92 15.52H25.0133C25.3867 15.52 25.5733 15.52 25.7067 16.0267L32.2667 34.5067C32.7733 35.9467 33.28 37.36 33.76 38.7733C33.9733 39.36 33.9467 39.4133 33.3067 39.4133ZM41.4667 38.96C41.4667 39.4133 41.28 39.5467 40.8533 39.5467H37.0133C36.48 39.5467 36.3467 39.3333 36.3467 38.8533V22.1067C36.3467 21.5733 36.5067 21.36 37.0667 21.3867H40.8267C41.2533 21.3867 41.4667 21.3867 41.4667 21.9733C41.4489 27.6267 41.4489 33.2889 41.4667 38.96ZM38.8 19.4933C38.4179 19.5176 38.0351 19.4593 37.6775 19.3224C37.3199 19.1855 36.996 18.9732 36.7279 18.6999C36.4597 18.4267 36.2535 18.0989 36.1233 17.7388C35.9931 17.3788 35.9419 16.9949 35.9733 16.6133C35.9767 16.234 36.0557 15.8593 36.2057 15.5109C36.3556 15.1625 36.5735 14.8474 36.8466 14.5843C37.1198 14.3211 37.4426 14.115 37.7963 13.978C38.1501 13.8411 38.5275 13.776 38.9067 13.7867C39.2756 13.7855 39.6407 13.8609 39.9789 14.008C40.3172 14.1552 40.6213 14.3709 40.8719 14.6416C41.1225 14.9122 41.3143 15.232 41.435 15.5806C41.5557 15.9291 41.6028 16.299 41.5733 16.6667C41.5952 17.0301 41.5424 17.3941 41.4182 17.7364C41.294 18.0786 41.101 18.3918 40.8512 18.6566C40.6014 18.9214 40.2999 19.1323 39.9655 19.2762C39.6311 19.4201 39.2707 19.494 38.9067 19.4933H38.8Z" fill="black"/>
<path d="M25.28 29.1201H19.6267C20.5867 26.0267 21.4934 22.9867 22.2934 19.9467C23.36 22.9867 24.32 26.0267 25.28 29.1201Z" fill="black"/>
</svg>
