<svg width="18" height="27" viewBox="0 0 18 27" fill="none" xmlns="http://www.w3.org/2000/svg">
<path fill-rule="evenodd" clip-rule="evenodd" d="M4.95675 0.00125731C3.90497 0.000450296 2.88025 0.346271 2.031 0.98863C1.18176 1.63099 0.552079 2.53654 0.233171 3.57412C-0.0857377 4.61169 -0.0773189 5.72743 0.257208 6.75972C0.591735 7.79202 1.235 8.68727 2.09384 9.31582C1.44736 9.78948 0.920118 10.4168 0.55641 11.1452C0.192703 11.8735 0.00314884 12.6816 0.0036713 13.5015C0.0036713 15.2296 0.82979 16.7592 2.09626 17.6872C1.40246 18.1957 0.846726 18.8804 0.482529 19.6755C0.118333 20.4706 -0.0420682 21.3494 0.0167599 22.2273C0.0755879 23.1051 0.351665 23.9526 0.818428 24.688C1.28519 25.4235 1.92693 26.0222 2.6819 26.4266C3.43687 26.8309 4.27967 27.0274 5.12919 26.9969C5.97872 26.9665 6.80639 26.7103 7.53256 26.2529C8.25874 25.7954 8.85898 25.1522 9.27554 24.3852C9.69209 23.6181 9.91095 22.7529 9.91104 21.873V17.4725C10.4263 17.9047 11.0202 18.2253 11.6575 18.4154C12.2947 18.6055 12.9623 18.6612 13.6208 18.5792C14.2792 18.4972 14.915 18.2791 15.4905 17.9379C16.066 17.5967 16.5694 17.1393 16.9709 16.593C17.3725 16.0466 17.6639 15.4222 17.828 14.7571C17.9921 14.0919 18.0255 13.3993 17.9262 12.7205C17.8269 12.0417 17.5969 11.3905 17.2499 10.8054C16.9029 10.2203 16.446 9.71337 15.9062 9.31456C16.765 8.68601 17.4083 7.79076 17.7428 6.75847C18.0773 5.72617 18.0857 4.61044 17.7668 3.57286C17.4479 2.53528 16.8182 1.62973 15.969 0.987375C15.1197 0.345015 14.095 -0.000805602 13.0433 1.40923e-06L4.95675 0.00125731ZM8.09018 16.7454H4.95675C4.54526 16.7454 4.1378 16.6615 3.75764 16.4984C3.37747 16.3354 3.03204 16.0965 2.74108 15.7953C2.45011 15.494 2.2193 15.1364 2.06183 14.7429C1.90437 14.3493 1.82332 13.9275 1.82332 13.5015C1.82332 13.0755 1.90437 12.6537 2.06183 12.2602C2.2193 11.8666 2.45011 11.509 2.74108 11.2078C3.03204 10.9066 3.37747 10.6676 3.75764 10.5046C4.1378 10.3416 4.54526 10.2577 4.95675 10.2577H8.09018V16.7454ZM4.95675 8.37394H8.09018V1.88502H4.95675C4.12555 1.88502 3.32839 2.22684 2.74065 2.8353C2.1529 3.44375 1.82271 4.26899 1.82271 5.12948C1.82271 5.98996 2.1529 6.8152 2.74065 7.42366C3.32839 8.03211 4.12555 8.37394 4.95675 8.37394ZM16.1779 5.12885C16.1782 5.98873 15.8487 6.81357 15.2619 7.42207C14.675 8.03057 13.8787 8.37294 13.0481 8.37394H9.90982V1.88502H13.0445C13.456 1.88502 13.8634 1.96892 14.2436 2.13194C14.6237 2.29496 14.9692 2.53389 15.2601 2.83511C15.5511 3.13633 15.7819 3.49393 15.9394 3.88749C16.0968 4.28105 16.1779 4.70286 16.1779 5.12885ZM9.90982 13.4978C9.91079 12.6387 10.2408 11.8152 10.8276 11.2078C11.4143 10.6004 12.2098 10.2587 13.0396 10.2577H13.0469C13.6663 10.2584 14.2716 10.4492 14.7864 10.806C15.3011 11.1627 15.7021 11.6693 15.9389 12.2619C16.1756 12.8545 16.2373 13.5064 16.1163 14.1353C15.9953 14.7642 15.6969 15.3418 15.2589 15.7953C14.8209 16.2487 14.2629 16.5576 13.6554 16.6828C13.048 16.8081 12.4182 16.7442 11.8458 16.4992C11.2734 16.2541 10.784 15.8389 10.4394 15.3061C10.0948 14.7732 9.91054 14.1465 9.90982 13.5053V13.4978ZM4.95675 18.6291C4.33706 18.6291 3.7313 18.8193 3.21603 19.1757C2.70077 19.5321 2.29915 20.0386 2.06195 20.6313C1.82475 21.224 1.76263 21.8761 1.88344 22.5053C2.00424 23.1345 2.30255 23.7125 2.74065 24.1662C3.17875 24.62 3.73696 24.929 4.3447 25.0543C4.95245 25.1796 5.58244 25.1155 6.15502 24.8702C6.7276 24.6249 7.21706 24.2093 7.56151 23.676C7.90596 23.1428 8.08994 22.5157 8.09018 21.8742V18.6291H4.95675Z" fill="white"/>
</svg>
