<svg width="54" height="54" viewBox="0 0 54 54" fill="none" xmlns="http://www.w3.org/2000/svg">
<rect width="54" height="54" rx="15" fill="black"/>
<path fill-rule="evenodd" clip-rule="evenodd" d="M22.9567 14.0013C21.905 14.0005 20.8802 14.3463 20.031 14.9886C19.1818 15.631 18.5521 16.5365 18.2332 17.5741C17.9143 18.6117 17.9227 19.7274 18.2572 20.7597C18.5917 21.792 19.235 22.6873 20.0938 23.3158C19.4474 23.7895 18.9201 24.4168 18.5564 25.1452C18.1927 25.8735 18.0031 26.6816 18.0037 27.5015C18.0037 29.2296 18.8298 30.7592 20.0963 31.6872C19.4025 32.1957 18.8467 32.8804 18.4825 33.6755C18.1183 34.4706 17.9579 35.3494 18.0168 36.2273C18.0756 37.1051 18.3517 37.9526 18.8184 38.688C19.2852 39.4235 19.9269 40.0222 20.6819 40.4266C21.4369 40.8309 22.2797 41.0274 23.1292 40.9969C23.9787 40.9665 24.8064 40.7103 25.5326 40.2529C26.2587 39.7954 26.859 39.1522 27.2755 38.3852C27.6921 37.6181 27.9109 36.7529 27.911 35.873V31.4725C28.4263 31.9047 29.0202 32.2253 29.6575 32.4154C30.2947 32.6055 30.9623 32.6612 31.6208 32.5792C32.2792 32.4972 32.915 32.2791 33.4905 31.9379C34.066 31.5967 34.5694 31.1393 34.9709 30.593C35.3725 30.0466 35.6639 29.4222 35.828 28.7571C35.9921 28.0919 36.0255 27.3993 35.9262 26.7205C35.8269 26.0417 35.5969 25.3905 35.2499 24.8054C34.9029 24.2203 34.446 23.7134 33.9062 23.3146C34.765 22.686 35.4083 21.7908 35.7428 20.7585C36.0773 19.7262 36.0857 18.6104 35.7668 17.5729C35.4479 16.5353 34.8182 15.6297 33.969 14.9874C33.1197 14.345 32.095 13.9992 31.0433 14L22.9567 14.0013ZM26.0902 30.7454H22.9567C22.5453 30.7454 22.1378 30.6615 21.7576 30.4984C21.3775 30.3354 21.032 30.0965 20.7411 29.7953C20.4501 29.494 20.2193 29.1364 20.0618 28.7429C19.9044 28.3493 19.8233 27.9275 19.8233 27.5015C19.8233 27.0755 19.9044 26.6537 20.0618 26.2602C20.2193 25.8666 20.4501 25.509 20.7411 25.2078C21.032 24.9066 21.3775 24.6676 21.7576 24.5046C22.1378 24.3416 22.5453 24.2577 22.9567 24.2577H26.0902V30.7454ZM22.9567 22.3739H26.0902V15.885H22.9567C22.1255 15.885 21.3284 16.2268 20.7406 16.8353C20.1529 17.4438 19.8227 18.269 19.8227 19.1295C19.8227 19.99 20.1529 20.8152 20.7406 21.4237C21.3284 22.0321 22.1255 22.3739 22.9567 22.3739ZM34.1779 19.1288C34.1782 19.9887 33.8487 20.8136 33.2619 21.4221C32.675 22.0306 31.8787 22.3729 31.0481 22.3739H27.9098V15.885H31.0445C31.456 15.885 31.8634 15.9689 32.2436 16.1319C32.6237 16.295 32.9692 16.5339 33.2601 16.8351C33.5511 17.1363 33.7819 17.4939 33.9394 17.8875C34.0968 18.281 34.1779 18.7029 34.1779 19.1288ZM27.9098 27.4978C27.9108 26.6387 28.2408 25.8152 28.8276 25.2078C29.4143 24.6004 30.2098 24.2587 31.0396 24.2577H31.0469C31.6663 24.2584 32.2716 24.4492 32.7864 24.806C33.3011 25.1627 33.7021 25.6693 33.9389 26.2619C34.1756 26.8545 34.2373 27.5064 34.1163 28.1353C33.9953 28.7642 33.6969 29.3418 33.2589 29.7953C32.8209 30.2487 32.2629 30.5576 31.6554 30.6828C31.048 30.8081 30.4182 30.7442 29.8458 30.4992C29.2734 30.2541 28.784 29.8389 28.4394 29.3061C28.0948 28.7732 27.9105 28.1465 27.9098 27.5053V27.4978ZM22.9567 32.6291C22.3371 32.6291 21.7313 32.8193 21.216 33.1757C20.7008 33.5321 20.2991 34.0386 20.062 34.6313C19.8248 35.224 19.7626 35.8761 19.8834 36.5053C20.0042 37.1345 20.3026 37.7125 20.7406 38.1662C21.1787 38.62 21.737 38.929 22.3447 39.0543C22.9524 39.1796 23.5824 39.1155 24.155 38.8702C24.7276 38.6249 25.2171 38.2093 25.5615 37.676C25.906 37.1428 26.0899 36.5157 26.0902 35.8742V32.6291H22.9567Z" fill="white"/>
</svg>
