<svg width="23" height="24" viewBox="0 0 23 24" fill="none" xmlns="http://www.w3.org/2000/svg">
<path d="M19.4524 20.2705H16.0695V14.9729C16.0695 13.7095 16.047 12.0839 14.31 12.0839C12.5483 12.0839 12.2783 13.4597 12.2783 14.8817V20.2705H8.8965V9.37599H12.1444V10.8644H12.1894C12.852 9.73262 14.0828 9.05649 15.3934 9.10487C18.8224 9.10487 19.4535 11.3605 19.4535 14.2934L19.4524 20.2705ZM5.07938 7.88649C3.99488 7.88649 3.11625 7.00787 3.11625 5.92337C3.11625 4.83887 3.99488 3.96024 5.07938 3.96024C6.16388 3.96024 7.0425 4.83887 7.0425 5.92337C7.0425 7.00787 6.16388 7.88649 5.07938 7.88649ZM6.77025 20.2705H3.384V9.37599H6.77025V20.2705ZM21.1388 0.819241H1.68413C0.765 0.809116 0.01125 1.54599 0 2.46512V21.9996C0.01125 22.9199 0.765 23.6567 1.68413 23.6466H21.1388C22.0601 23.6579 22.8173 22.921 22.8296 21.9996V2.46399C22.8161 1.54262 22.059 0.805741 21.1388 0.818116" fill="#F6F6F6"/>
</svg>
