<svg width="54" height="54" viewBox="0 0 54 54" fill="none" xmlns="http://www.w3.org/2000/svg">
<path d="M22.5333 22.6134C22.5737 23.4231 22.329 24.2213 21.8418 24.8693C21.3546 25.5172 20.6557 25.974 19.8667 26.16C18.4746 26.5711 17.0228 26.7425 15.5733 26.6667C15.2 26.6667 15.1733 26.4267 15.1733 26.16V19.36C15.1733 19.1734 15.36 18.8534 15.4667 18.8534C16.9921 18.6826 18.5357 18.7819 20.0267 19.1467C20.777 19.3524 21.4346 19.8082 21.8905 20.4386C22.3464 21.0691 22.5732 21.8364 22.5333 22.6134Z" fill="black"/>
<path d="M40 0H13.3333C9.79711 0 6.40573 1.40476 3.90524 3.90524C1.40476 6.40573 0 9.79711 0 13.3333V40C0 43.5362 1.40476 46.9276 3.90524 49.4281C6.40573 51.9286 9.79711 53.3333 13.3333 53.3333H40C43.5362 53.3333 46.9276 51.9286 49.4281 49.4281C51.9286 46.9276 53.3333 43.5362 53.3333 40V13.3333C53.3333 9.79711 51.9286 6.40573 49.4281 3.90524C46.9276 1.40476 43.5362 0 40 0ZM24 29.3333C22.6542 30.1881 21.1118 30.6839 19.52 30.7733H15.9467C15.2 30.7733 15.2 30.7733 15.2 31.4933V37.68C15.2 38.2133 15.04 38.3733 14.5067 38.3733H10.9867C10.48 38.3733 10.3467 38.1867 10.3467 37.7067V15.2267C10.3467 14.6933 10.3467 14.5333 11.0133 14.5333H19.36C20.8835 14.5746 22.371 15.0062 23.68 15.7867C24.8105 16.4237 25.7518 17.3493 26.4077 18.469C27.0636 19.5887 27.4106 20.8624 27.4133 22.16C27.5676 23.5548 27.3299 24.965 26.7269 26.2321C26.124 27.4993 25.1796 28.5732 24 29.3333ZM39.7867 38.1333C37.4676 39.0369 34.9285 39.2136 32.5067 38.64C31.7796 38.48 31.0684 38.2667 30.3733 38C30.2661 37.9497 30.1719 37.8755 30.0979 37.783C30.024 37.6905 29.9722 37.5823 29.9467 37.4667V33.44C30.8 33.76 31.6 34.1333 32.4267 34.4C33.8121 34.8428 35.2789 34.9703 36.72 34.7733C37.008 34.72 37.2836 34.6311 37.5467 34.5067C37.7029 34.4382 37.8388 34.3304 37.941 34.1938C38.0432 34.0572 38.1082 33.8964 38.1297 33.7272C38.1512 33.5579 38.1284 33.386 38.0636 33.2281C37.9988 33.0703 37.8942 32.932 37.76 32.8267C37.15 32.4044 36.4976 32.0469 35.8133 31.76C34.72 31.2267 33.6 30.8 32.56 30.1867C31.621 29.7298 30.8543 28.9823 30.3739 28.0552C29.8935 27.128 29.725 26.0706 29.8933 25.04C30.029 24.0481 30.441 23.1145 31.0824 22.3458C31.7237 21.5771 32.5685 21.0045 33.52 20.6933C35.235 20.1134 37.065 19.9578 38.8533 20.24C39.7067 20.24 40.5333 20.56 41.3867 20.72C41.84 20.72 42 21.0933 41.9733 21.5467V24.6667C41.9733 25.2533 41.84 25.3067 41.3067 25.0933C39.6411 24.3222 37.8001 24.0093 35.9733 24.1867C35.7145 24.2168 35.4623 24.2888 35.2267 24.4C35.0667 24.4628 34.9259 24.5663 34.8182 24.7003C34.7106 24.8342 34.6398 24.994 34.6128 25.1637C34.5859 25.3335 34.6037 25.5073 34.6646 25.668C34.7255 25.8287 34.8273 25.9707 34.96 26.08C35.7316 26.5938 36.5404 27.0382 37.3867 27.4133C38.4 27.92 39.4667 28.32 40.4533 28.88C41.3486 29.2874 42.0903 29.9703 42.57 30.829C43.0498 31.6878 43.2425 32.6773 43.12 33.6533C43.0357 34.627 42.6745 35.5561 42.0792 36.3311C41.4838 37.106 40.679 37.6944 39.76 38.0267L39.7867 38.1333Z" fill="black"/>
</svg>
