<svg width="26" height="26" viewBox="0 0 26 26" fill="none" xmlns="http://www.w3.org/2000/svg">
<path d="M13 0C5.837 0 0 5.837 0 13C0 20.163 5.837 26 13 26C20.163 26 26 20.163 26 13C26 5.837 20.163 0 13 0ZM1.313 13C1.313 11.31 1.677 9.698 2.327 8.242L7.904 23.517C4.004 21.619 1.313 17.628 1.313 13ZM13 24.687C11.856 24.687 10.751 24.518 9.698 24.206L13.208 14.014L16.796 23.855C16.822 23.907 16.848 23.972 16.874 24.011C15.665 24.453 14.365 24.687 13 24.687ZM14.612 7.514C15.314 7.475 15.951 7.397 15.951 7.397C16.575 7.319 16.51 6.396 15.873 6.435C15.873 6.435 13.975 6.578 12.753 6.578C11.609 6.578 9.672 6.435 9.672 6.435C9.048 6.409 8.97 7.371 9.607 7.41C9.607 7.41 10.205 7.488 10.829 7.527L12.649 12.519L10.088 20.189L5.837 7.514C6.539 7.488 7.176 7.41 7.176 7.41C7.8 7.332 7.735 6.409 7.098 6.448C7.098 6.448 5.2 6.591 3.978 6.591C3.757 6.591 3.497 6.591 3.224 6.578C5.33 3.406 8.918 1.313 13 1.313C16.042 1.313 18.811 2.47 20.891 4.381C20.839 4.381 20.787 4.368 20.735 4.368C19.591 4.368 18.772 5.369 18.772 6.448C18.772 7.41 19.331 8.229 19.916 9.191C20.358 9.971 20.878 10.972 20.878 12.415C20.878 13.416 20.488 14.573 19.994 16.198L18.824 20.098L14.612 7.514ZM23.257 7.397C24.7165 10.0695 25.0753 13.206 24.2571 16.1391C23.4388 19.0721 21.5082 21.57 18.876 23.101L22.451 12.779C23.114 11.115 23.335 9.776 23.335 8.593C23.335 8.164 23.309 7.761 23.257 7.397Z" fill="white"/>
</svg>
