<svg width="54" height="54" viewBox="0 0 54 54" fill="none" xmlns="http://www.w3.org/2000/svg">
<rect width="54" height="54" rx="15" fill="black"/>
<path d="M27 14C19.837 14 14 19.837 14 27C14 34.163 19.837 40 27 40C34.163 40 40 34.163 40 27C40 19.837 34.163 14 27 14ZM15.313 27C15.313 25.31 15.677 23.698 16.327 22.242L21.904 37.517C18.004 35.619 15.313 31.628 15.313 27ZM27 38.687C25.856 38.687 24.751 38.518 23.698 38.206L27.208 28.014L30.796 37.855C30.822 37.907 30.848 37.972 30.874 38.011C29.665 38.453 28.365 38.687 27 38.687ZM28.612 21.514C29.314 21.475 29.951 21.397 29.951 21.397C30.575 21.319 30.51 20.396 29.873 20.435C29.873 20.435 27.975 20.578 26.753 20.578C25.609 20.578 23.672 20.435 23.672 20.435C23.048 20.409 22.97 21.371 23.607 21.41C23.607 21.41 24.205 21.488 24.829 21.527L26.649 26.519L24.088 34.189L19.837 21.514C20.539 21.488 21.176 21.41 21.176 21.41C21.8 21.332 21.735 20.409 21.098 20.448C21.098 20.448 19.2 20.591 17.978 20.591C17.757 20.591 17.497 20.591 17.224 20.578C19.33 17.406 22.918 15.313 27 15.313C30.042 15.313 32.811 16.47 34.891 18.381C34.839 18.381 34.787 18.368 34.735 18.368C33.591 18.368 32.772 19.369 32.772 20.448C32.772 21.41 33.331 22.229 33.916 23.191C34.358 23.971 34.878 24.972 34.878 26.415C34.878 27.416 34.488 28.573 33.994 30.198L32.824 34.098L28.612 21.514ZM37.257 21.397C38.7165 24.0695 39.0753 27.206 38.2571 30.1391C37.4388 33.0721 35.5082 35.57 32.876 37.101L36.451 26.779C37.114 25.115 37.335 23.776 37.335 22.593C37.335 22.164 37.309 21.761 37.257 21.397Z" fill="white"/>
</svg>
