<svg width="27" height="21" viewBox="0 0 27 21" fill="none" xmlns="http://www.w3.org/2000/svg">
<path d="M26.4352 3.53035C26.1247 2.31818 25.2101 1.36268 24.048 1.03835C21.9431 0.450348 13.5 0.450348 13.5 0.450348C13.5 0.450348 5.05687 0.450348 2.95087 1.03835C1.78987 1.36268 0.87525 2.31701 0.56475 3.53035C0 5.72835 0 10.3133 0 10.3133C0 10.3133 0 14.8983 0.56475 17.0963C0.87525 18.3085 1.78988 19.264 2.952 19.5884C5.05688 20.1764 13.5 20.1763 13.5 20.1763C13.5 20.1763 21.9431 20.1764 24.0491 19.5884C25.2101 19.264 26.1247 18.3097 26.4364 17.0963C27 14.8983 27 10.3133 27 10.3133C27 10.3133 27 5.72835 26.4352 3.53035ZM10.7392 14.4772V6.14951L17.7952 10.3133L10.7392 14.4772Z" fill="#F6F6F6"/>
</svg>
